<svg>
<symbol id='arrowicon'  viewBox="0 0 16 16" fill="none" xmlns="http://www.w3.org/2000/svg">
<path fill-rule="evenodd" clip-rule="evenodd" d="M14.75 8C14.75 9.79021 14.0388 11.5071 12.773 12.773C11.5071 14.0388 9.79021 14.75 8 14.75C6.20979 14.75 4.4929 14.0388 3.22703 12.773C1.96116 11.5071 1.25 9.79021 1.25 8C1.25 6.20979 1.96116 4.4929 3.22703 3.22703C4.4929 1.96116 6.20979 1.25 8 1.25C9.79021 1.25 11.5071 1.96116 12.773 3.22703C14.0388 4.4929 14.75 6.20979 14.75 8ZM16 8C16 10.1217 15.1571 12.1566 13.6569 13.6569C12.1566 15.1571 10.1217 16 8 16C5.87827 16 3.84344 15.1571 2.34315 13.6569C0.842855 12.1566 0 10.1217 0 8C0 5.87827 0.842855 3.84344 2.34315 2.34315C3.84344 0.842855 5.87827 0 8 0C10.1217 0 12.1566 0.842855 13.6569 2.34315C15.1571 3.84344 16 5.87827 16 8ZM7.47 5.53L9.19 7.25H4V8.75H9.19L7.47 10.47L8.53 11.53L11.53 8.53C11.6705 8.38937 11.7493 8.19875 11.7493 8C11.7493 7.80125 11.6705 7.61063 11.53 7.47L8.53 4.47L7.47 5.53Z" fill="currentColor"/>
</symbol>

<symbol id="circlebar" width="226" height="226" viewBox="0 0 219 256" fill="none" xmlns="http://www.w3.org/2000/svg">
<g filter="url(#filter0_d_5_459)">
<path d="M127.653 32.3936C86.8546 32.3936 53.7811 65.467 53.7811 106.265C53.7811 147.063 86.8546 180.137 127.653 180.137C143.602 180.137 158.371 175.083 170.444 166.488" stroke="#DE2879" stroke-width="27.0262"/>
</g>
<defs>
<filter id="filter0_d_5_459" x="0.268005" y="0.501362" width="218.013" height="254.77" filterUnits="userSpaceOnUse" color-interpolation-filters="sRGB">
<feFlood flood-opacity="0" result="BackgroundImageFix"/>
<feColorMatrix in="SourceAlpha" type="matrix" values="0 0 0 0 0 0 0 0 0 0 0 0 0 0 0 0 0 0 127 0" result="hardAlpha"/>
<feOffset dy="21.621"/>
<feGaussianBlur stdDeviation="20"/>
<feColorMatrix type="matrix" values="0 0 0 0 0 0 0 0 0 0 0 0 0 0 0 0 0 0 0.1 0"/>
<feBlend mode="normal" in2="BackgroundImageFix" result="effect1_dropShadow_5_459"/>
<feBlend mode="normal" in="SourceGraphic" in2="effect1_dropShadow_5_459" result="shape"/>
</filter>
</defs>
</symbol>

<symbol id="chase" width="138" height="26" viewBox="0 0 138 26" fill="currentColor" xmlns="http://www.w3.org/2000/svg">
<path d="M120.642 0C120.145 0 119.743 0.402412 119.743 0.898618V7.20112H136.391L128.809 0.000581339L120.642 0Z" fill="currentColor"/>
<path d="M137.001 9.10703C137.001 8.60966 136.602 8.20898 136.102 8.20898H129.801V24.8578L136.998 17.2728L137.001 9.10703Z" fill="currentColor"/>
<path d="M127.891 25.4616C128.387 25.4616 128.789 25.0586 128.789 24.5613V18.2611H112.14L119.723 25.4605L127.891 25.4616Z" fill="currentColor"/>
<path d="M111.532 16.3545C111.532 16.8513 111.934 17.256 112.432 17.256H118.732V0.606079L111.533 8.18875L111.532 16.3545Z" fill="currentColor"/>
<path d="M35.2227 3.03911V10.7277H24.5111V3.03911L20.6097 3.03564V22.4219H24.5111V14.0935H35.2227V22.4219H39.1304V3.03911H35.2227Z" fill="currentColor"/>
<path d="M87.125 3.03918V22.4174H104.241L102.073 19.0059H91.0374V14.0936H101.724V10.8077H91.0374V6.37079H102.055L104.178 3.03918H87.125Z" fill="currentColor"/>
<path d="M6.10796 3.03455C2.04971 3.03455 0 5.5017 0 9.09155V16.328C0 20.4823 2.64143 22.422 6.08769 22.422L18.3279 22.4209L16.0588 18.8773H6.84387C4.88624 18.8773 4.03337 18.1698 4.03337 15.9788V9.41347C4.03337 7.29546 4.75134 6.46922 6.89598 6.46922H16.1549L18.3337 3.03455H6.10796Z" fill="currentColor"/>
<path d="M70.0017 3.03014C67.6579 3.03014 65.2556 4.43887 65.2556 8.0623V8.99333C65.2556 12.7708 67.567 14.2119 69.8795 14.2218H77.9966C78.8397 14.2218 79.5246 14.3619 79.5246 15.7868L79.5235 17.4329C79.502 18.7131 78.8634 19.0061 77.9677 19.0061H67.2891L65.1016 22.4176H78.219C81.3821 22.4176 83.5296 20.8439 83.5296 17.2089V15.8731C83.5296 12.3585 81.5344 10.6979 78.4407 10.6979H70.6901C69.8309 10.6979 69.2322 10.4634 69.2322 9.19078V7.85037C69.2322 6.76648 69.6427 6.37101 70.6438 6.37101L80.8135 6.36696L82.939 3.02551L70.0017 3.03014Z" fill="currentColor"/>
<path d="M50.4651 3.03967L41.2733 22.4214H45.6176L47.4079 18.4187H57.3964L59.1808 22.4214H63.5442L54.3311 3.03967H50.4651ZM52.3926 7.06377L55.9245 15.1195H48.8832L52.3926 7.06377Z" fill="currnetColor"/>
</symbol>


<symbol id="asana" width="122" height="25" viewBox="0 0 122 25" fill="currentColor" xmlns="http://www.w3.org/2000/svg">
<path fill-rule="evenodd" clip-rule="evenodd" d="M18.7026 5.66475C18.7026 8.79361 16.1646 11.3301 13.0336 11.3301C9.90254 11.3301 7.36449 8.79361 7.36449 5.66475C7.36449 2.53653 9.90254 0 13.0336 0C16.1646 0 18.7026 2.53653 18.7026 5.66475ZM5.66914 12.7465C2.53818 12.7465 0 15.2823 0 18.4111C0 21.5397 2.53818 24.076 5.66914 24.076C8.80022 24.076 11.3385 21.5397 11.3385 18.4111C11.3385 15.2823 8.80022 12.7465 5.66914 12.7465ZM20.398 12.746C17.267 12.746 14.7289 15.2823 14.7289 18.4111C14.7289 21.5397 17.267 24.076 20.398 24.076C23.5289 24.076 26.0671 21.5397 26.0671 18.4111C26.0671 15.2823 23.5289 12.746 20.398 12.746Z" fill="currentColor"/>
<path fill-rule="evenodd" clip-rule="evenodd" d="M46.0137 18.3458C46.0876 19.1862 46.7603 20.2559 47.9258 20.2559H48.6077C48.872 20.2559 49.0887 20.0394 49.0887 19.7751V4.78914H49.0857C49.0719 4.53667 48.8632 4.33447 48.6077 4.33447H46.4947C46.2392 4.33447 46.0305 4.53667 46.0163 4.78914H46.0137V6.00683C44.7191 4.41223 42.678 3.75037 40.6311 3.75037C35.9786 3.75037 32.207 7.52201 32.207 12.1749C32.207 16.828 35.9786 20.5997 40.6311 20.5997V20.6001C42.678 20.6001 44.9086 19.806 46.0135 18.3439L46.0137 18.3458ZM40.6394 17.6512C37.6804 17.6512 35.2816 15.1996 35.2816 12.1749C35.2816 9.15064 37.6804 6.69887 40.6394 6.69887C43.5983 6.69887 45.9968 9.15064 45.9968 12.1749C45.9968 15.1996 43.5983 17.6512 40.6394 17.6512Z" fill="currentColor"/>
<path fill-rule="evenodd" clip-rule="evenodd" d="M80.4395 18.3455C80.5134 19.1859 81.1861 20.2556 82.3515 20.2556H83.0334C83.2978 20.2556 83.5142 20.0391 83.5142 19.7747V4.78877H83.5115C83.4977 4.5363 83.2887 4.3341 83.0334 4.3341H80.9204C80.6649 4.3341 80.4562 4.5363 80.4419 4.78877H80.4395V6.00646C79.1447 4.41186 77.1036 3.75 75.0567 3.75C70.4042 3.75 66.6328 7.52165 66.6328 12.1745C66.6328 16.8276 70.4042 20.5994 75.0567 20.5994V20.5998C77.1036 20.5998 79.3344 19.8056 80.4392 18.3435L80.4395 18.3455ZM75.0649 17.6509C72.1062 17.6509 69.7072 15.1992 69.7072 12.1745C69.7072 9.15027 72.1062 6.69851 75.0649 6.69851C78.024 6.69851 80.4224 9.15027 80.4224 12.1745C80.4224 15.1992 78.024 17.6509 75.0649 17.6509Z" fill="currentColor"/>
<path fill-rule="evenodd" clip-rule="evenodd" d="M118.923 18.3455C118.997 19.1859 119.67 20.2556 120.835 20.2556H121.517C121.782 20.2556 121.999 20.0391 121.999 19.7747V4.78877H121.995C121.982 4.5363 121.773 4.3341 121.517 4.3341H119.404C119.149 4.3341 118.94 4.5363 118.926 4.78877H118.923V6.00646C117.629 4.41186 115.588 3.75 113.541 3.75C108.888 3.75 105.117 7.52165 105.117 12.1745C105.117 16.8276 108.888 20.5994 113.541 20.5994V20.5998C115.588 20.5998 117.818 19.8056 118.923 18.3435L118.923 18.3455ZM113.549 17.6509C110.59 17.6509 108.191 15.1992 108.191 12.1745C108.191 9.15027 110.59 6.69851 113.549 6.69851C116.508 6.69851 118.907 9.15027 118.907 12.1745C118.907 15.1992 116.508 17.6509 113.549 17.6509Z" fill="currentColor"/>
<path fill-rule="evenodd" clip-rule="evenodd" d="M102.444 18.8618L102.443 11.1072H102.443C102.443 6.736 99.6856 3.78711 95.2882 3.78711C93.1891 3.78711 91.4683 5.00097 90.8606 6.0437C90.7292 5.22837 90.2963 4.37134 88.954 4.37134H88.2698C88.0052 4.37134 87.7891 4.58799 87.7891 4.85235V18.384V18.386V19.8396H87.7918C87.8056 20.0916 88.0145 20.2941 88.2701 20.2941H90.383C90.4154 20.2941 90.4471 20.2903 90.4778 20.2843C90.4918 20.2816 90.5048 20.2761 90.5184 20.2722C90.5341 20.2674 90.5504 20.2637 90.5654 20.2575C90.5842 20.2497 90.6012 20.2392 90.6187 20.2295C90.6273 20.2243 90.6363 20.2206 90.6446 20.2151C90.6657 20.2015 90.685 20.1851 90.7037 20.1684C90.7067 20.1653 90.7104 20.1633 90.7135 20.1604C90.7345 20.1401 90.7537 20.1177 90.7707 20.0945L90.7708 20.0941C90.8237 20.0214 90.8559 19.9339 90.8611 19.8396H90.8638V10.987C90.8638 8.63935 92.7672 6.736 95.115 6.736C97.4626 6.736 99.366 8.63935 99.366 10.987L99.3679 18.3865L99.3684 18.384C99.3684 18.3905 99.3694 18.3973 99.3694 18.4043V19.8396H99.3723C99.3862 20.0916 99.5949 20.2941 99.8504 20.2941H101.964C101.996 20.2941 102.028 20.2903 102.058 20.2843C102.071 20.282 102.082 20.277 102.095 20.2735C102.112 20.2685 102.13 20.2642 102.146 20.2575C102.163 20.2504 102.179 20.2404 102.196 20.2312C102.206 20.2255 102.216 20.2215 102.226 20.2151C102.245 20.2023 102.263 20.1868 102.28 20.1714C102.285 20.1674 102.29 20.1643 102.294 20.1601C102.314 20.1408 102.332 20.1199 102.348 20.098C102.35 20.0964 102.351 20.0951 102.352 20.0934C102.404 20.0214 102.436 19.9346 102.441 19.8408C102.441 19.8402 102.442 19.8396 102.442 19.8396H102.445V18.8621L102.444 18.8618Z" fill="currentColor"/>
<path fill-rule="evenodd" clip-rule="evenodd" d="M54.1356 16.1994C55.5462 17.1766 57.0859 17.6512 58.5655 17.6512C59.9751 17.6512 61.4324 16.9204 61.4324 15.6485C61.4324 13.9503 58.2569 13.6861 56.2619 13.008C54.2664 12.3299 52.5477 10.9281 52.5477 8.65813C52.5477 5.18461 55.6426 3.75 58.5313 3.75C60.3615 3.75 62.2499 4.35354 63.4742 5.21812C63.8958 5.5376 63.639 5.9044 63.639 5.9044L62.4704 7.57357C62.339 7.76158 62.1093 7.92401 61.7796 7.72052C61.45 7.51717 60.2936 6.69864 58.5313 6.69864C56.7688 6.69864 55.7072 7.51257 55.7072 8.52141C55.7072 9.73117 57.087 10.1117 58.7031 10.524C61.5195 11.2832 64.5918 12.1957 64.5918 15.6485C64.5918 18.7089 61.7293 20.6003 58.5655 20.6003C56.168 20.6003 54.1268 19.9168 52.4148 18.6605C52.0581 18.3035 52.3073 17.9721 52.3073 17.9721L53.4702 16.3114C53.7068 16.0009 54.0051 16.1092 54.1356 16.1994Z" fill="currentColor"/>
</symbol>

<symbol id="google" width="99" height="33" viewBox="0 0 99 33" fill="currnetColor" xmlns="http://www.w3.org/2000/svg">
<path d="M41.9381 16.9764C41.9381 21.6177 38.3072 25.0377 33.8513 25.0377C29.3955 25.0377 25.7646 21.6177 25.7646 16.9764C25.7646 12.3025 29.3955 8.91516 33.8513 8.91516C38.3072 8.91516 41.9381 12.3025 41.9381 16.9764ZM38.3981 16.9764C38.3981 14.0761 36.2937 12.0917 33.8513 12.0917C31.409 12.0917 29.3046 14.0761 29.3046 16.9764C29.3046 19.8477 31.409 21.8612 33.8513 21.8612C36.2937 21.8612 38.3981 19.844 38.3981 16.9764Z" fill="currentColor"/>
<path d="M59.3837 16.9764C59.3837 21.6177 55.7528 25.0377 51.2969 25.0377C46.8411 25.0377 43.2102 21.6177 43.2102 16.9764C43.2102 12.3061 46.8411 8.91516 51.2969 8.91516C55.7528 8.91516 59.3837 12.3025 59.3837 16.9764ZM55.8437 16.9764C55.8437 14.0761 53.7393 12.0917 51.2969 12.0917C48.8546 12.0917 46.7502 14.0761 46.7502 16.9764C46.7502 19.8477 48.8546 21.8612 51.2969 21.8612C53.7393 21.8612 55.8437 19.844 55.8437 16.9764Z" fill="currentColor"/>
<path d="M76.1022 9.40218V23.8747C76.1022 29.828 72.5913 32.2594 68.4408 32.2594C64.5337 32.2594 62.1822 29.6462 61.2954 27.5092L64.3774 26.2262C64.9262 27.5382 66.271 29.0865 68.4371 29.0865C71.0939 29.0865 72.7403 27.4474 72.7403 24.3617V23.2023H72.6168C71.8245 24.18 70.298 25.0341 68.3717 25.0341C64.3411 25.0341 60.6484 21.5232 60.6484 17.0055C60.6484 12.4551 64.3411 8.91516 68.3717 8.91516C70.2943 8.91516 71.8208 9.76926 72.6168 10.7179H72.7403V9.40582H76.1022V9.40218ZM72.9911 17.0055C72.9911 14.167 71.0976 12.0917 68.6879 12.0917C66.2455 12.0917 64.1993 14.167 64.1993 17.0055C64.1993 19.815 66.2455 21.8612 68.6879 21.8612C71.0976 21.8612 72.9911 19.815 72.9911 17.0055Z" fill="currentColor"/>
<path d="M81.645 0.919556V24.5437H78.1922V0.919556H81.645Z" fill="currentColor"/>
<path d="M95.1011 19.6302L97.8488 21.462C96.962 22.774 94.8249 25.0347 91.1323 25.0347C86.5529 25.0347 83.1328 21.4947 83.1328 16.9734C83.1328 12.1795 86.5819 8.91211 90.7361 8.91211C94.9194 8.91211 96.9656 12.2413 97.6344 14.0404L98.0015 14.9562L87.2252 19.4194C88.0503 21.0367 89.3332 21.8618 91.1323 21.8618C92.935 21.8618 94.1853 20.9749 95.1011 19.6302ZM86.6437 16.7299L93.8473 13.7387C93.4511 12.7319 92.259 12.0305 90.8561 12.0305C89.057 12.0305 86.5529 13.6188 86.6437 16.7299Z" fill="currentColor"/>
<path d="M12.6952 14.8796V11.4595H24.2202C24.3328 12.0556 24.391 12.7607 24.391 13.5239C24.391 16.0898 23.6895 19.2627 21.4289 21.5234C19.23 23.8131 16.4206 25.0343 12.6989 25.0343C5.80063 25.0343 0 19.4154 0 12.5171C0 5.6189 5.80063 0 12.6989 0C16.5151 0 19.2337 1.4974 21.2762 3.44912L18.8629 5.86241C17.3982 4.48858 15.4138 3.42004 12.6952 3.42004C7.65785 3.42004 3.71807 7.47976 3.71807 12.5171C3.71807 17.5545 7.65785 21.6142 12.6952 21.6142C15.9626 21.6142 17.8235 20.3022 19.0156 19.1101C19.9824 18.1433 20.6184 16.7622 20.8692 14.8759L12.6952 14.8796Z" fill="currentColor"/>
</symbol>

<symbol id="buzzfeed" width="120" height="20" viewBox="0 0 120 20" fill="currentColor" xmlns="http://www.w3.org/2000/svg">
<path d="M11.874 10.1941C12.8285 10.2704 13.6303 10.6522 14.3175 11.3777C15.0048 12.1031 15.3484 13.0958 15.3484 14.3557C15.3484 15.8829 14.8521 17.1429 13.8212 18.0592C12.7903 18.9755 11.3395 19.4337 9.3923 19.4337H0V1.3363H9.35412C10.9959 1.3363 12.3322 1.79446 13.3248 2.67261C14.3175 3.58893 14.8139 4.77251 14.8139 6.26153C14.8139 7.40694 14.5084 8.28508 13.8594 8.97232C13.2103 9.65956 12.5612 10.0032 11.8358 10.0795L11.874 10.1941ZM4.46707 8.8196H8.36144C9.0105 8.8196 9.54502 8.6287 9.965 8.2469C10.3468 7.8651 10.5759 7.40694 10.5759 6.75787C10.5759 6.18517 10.385 5.76519 10.0032 5.42157C9.62138 5.07795 9.12504 4.92523 8.55234 4.92523H4.46707V8.8196ZM8.59052 15.8447C9.27776 15.8447 9.85046 15.6538 10.2323 15.3102C10.6141 14.9666 10.805 14.4703 10.805 13.8212C10.805 13.2103 10.6141 12.7521 10.1941 12.4085C9.81228 12.0649 9.27776 11.874 8.66688 11.874H4.46707V15.8447H8.59052ZM30.8113 19.4337H26.497V18.1355C25.4279 19.2809 24.0153 19.8536 22.3353 19.8536C20.7318 19.8536 19.4718 19.3191 18.5173 18.2883C17.5628 17.2574 17.0665 15.8829 17.0665 14.203V5.87973H21.3427V13.2867C21.3427 14.0885 21.5717 14.7375 21.9917 15.2339C22.4117 15.7302 22.9844 15.9593 23.6717 15.9593C24.5498 15.9593 25.237 15.6538 25.7334 15.043C26.2297 14.4321 26.4588 13.4776 26.4588 12.1794V5.87973H30.7731L30.8113 19.4337ZM44.1362 19.4337H32.6822V18.6319L38.0655 9.31594H32.8349V5.87973H44.0598V6.68151L38.6764 15.9975H44.098V19.4337H44.1362ZM57.4228 19.4337H46.007V18.6319L51.3522 9.31594H46.1215V5.87973H57.3465V6.68151L51.9631 15.9975H57.3847L57.4228 19.4337ZM63.8371 9.08686H71.664V12.9812H63.8371V19.4718H59.37V1.3363H72.3513V5.23067H63.8371V9.08686ZM103.315 13.783H93.3885C93.6557 15.4629 94.9157 16.4174 96.7865 16.4174C98.2755 16.4174 99.7645 15.8447 100.872 14.9666L102.514 17.8301C100.986 19.1282 99.0391 19.8536 96.7865 19.8536C92.2431 19.8536 89.1505 17.1047 89.1505 12.6758C89.1505 10.5759 89.8377 8.85778 91.2122 7.52148C92.5867 6.18517 94.3048 5.49793 96.3284 5.49793C98.2755 5.49793 99.9173 6.14699 101.254 7.4833C102.59 8.8196 103.277 10.5377 103.315 12.714V13.783ZM94.5721 9.54502C94.0375 9.92682 93.6557 10.4613 93.4648 11.1104H99.0391C98.8482 10.4232 98.5046 9.88864 98.0083 9.50684C97.5119 9.16322 96.9392 8.97232 96.3284 8.97232C95.6793 8.97232 95.1066 9.16322 94.5721 9.54502ZM87.5088 13.783H77.5819C77.8492 15.4629 79.1091 16.4174 80.98 16.4174C82.469 16.4174 83.958 15.8447 85.0652 14.9666L86.707 17.8301C85.1798 19.1282 83.2326 19.8536 80.98 19.8536C76.4365 19.8536 73.3439 17.1047 73.3439 12.6758C73.3439 10.5759 74.0312 8.85778 75.4057 7.52148C76.7801 6.18517 78.4983 5.49793 80.5218 5.49793C82.469 5.49793 84.1107 6.14699 85.447 7.4833C86.7833 8.8196 87.4706 10.5377 87.5088 12.714V13.783ZM78.7655 9.54502C78.231 9.92682 77.8492 10.4613 77.6583 11.1104H83.2326C83.0417 10.4232 82.6981 9.88864 82.2017 9.50684C81.7054 9.16322 81.1327 8.97232 80.5218 8.97232C79.8727 8.97232 79.3 9.16322 78.7655 9.54502ZM120 19.4337H115.686V18.3646C114.578 19.3573 113.204 19.8536 111.486 19.8536C109.653 19.8536 108.088 19.1664 106.79 17.8301C105.492 16.4938 104.842 14.7757 104.842 12.6758C104.842 10.5759 105.492 8.85778 106.79 7.52148C108.088 6.18517 109.653 5.49793 111.486 5.49793C113.204 5.49793 114.617 5.99427 115.686 6.98695V0H120V19.4337ZM114.731 15.1957C115.38 14.5466 115.724 13.7066 115.724 12.6758C115.724 11.6831 115.38 10.8431 114.731 10.1559C114.082 9.50684 113.28 9.16322 112.402 9.16322C111.448 9.16322 110.684 9.50684 110.073 10.1559C109.462 10.805 109.157 11.6449 109.157 12.6758C109.157 13.7066 109.462 14.5848 110.073 15.2339C110.684 15.8829 111.448 16.1884 112.402 16.1884C113.28 16.1884 114.044 15.8447 114.731 15.1957Z" fill="currentColor"/>
</symbol>

<symbol id="walmart" width="133" height="33" viewBox="0 0 133 33" fill="currentColor" xmlns="http://www.w3.org/2000/svg">
<path d="M0 6.74223C0 6.74223 3.3042 20.3071 3.83153 22.5089C4.44703 25.0788 5.55605 26.0247 8.75354 25.3868L10.8168 16.9766C11.3397 14.8876 11.6904 13.3983 12.0266 11.2732H12.0857C12.3219 13.4191 12.6582 14.8938 13.0885 16.9839C13.0885 16.9839 13.9284 20.8019 14.3585 22.8073C14.7898 24.8119 15.9899 26.0753 19.1218 25.3875L24.038 6.74365H20.0688L18.3904 14.8043C17.9392 17.1506 17.5297 18.9839 17.214 21.1304H17.158C16.8711 19.0053 16.5062 17.2446 16.0474 14.9586L14.2999 6.74365H10.1643L8.29505 14.7516C7.76547 17.185 7.27015 19.15 6.95517 21.2237H6.89813C6.57556 19.2708 6.14593 16.8012 5.68069 14.4456C5.68069 14.4456 4.57011 8.71795 4.18045 6.74365L0.000386466 6.74419L0 6.74223ZM37.838 6.74223V25.3861H41.617V21.4271V6.74133H37.838V6.74223ZM91.0617 6.74223V20.4961C91.0617 22.3924 91.4179 23.721 92.18 24.5327C92.8458 25.2425 93.9425 25.7022 95.2566 25.7022C96.3739 25.7022 97.4732 25.4899 97.9913 25.2966L97.9426 22.3379C97.5571 22.4329 97.1136 22.509 96.507 22.509C95.2197 22.509 94.788 21.683 94.788 19.9803V14.7181H98.0792V11.151H94.788V6.74228H91.0615L91.0617 6.74223ZM29.3928 11.0643C27.0442 11.0643 25.18 11.7249 24.1637 12.3133L24.9074 14.8646C25.8375 14.2772 27.3183 13.7909 28.7204 13.7909C31.0419 13.7849 31.4214 15.106 31.4214 15.9532V16.1536C26.363 16.146 23.1678 17.8997 23.1678 21.4743C23.1678 23.6568 24.7943 25.7021 27.6227 25.7021C29.3637 25.7021 30.8198 25.0065 31.6925 23.8918H31.7781C31.7781 23.8918 32.3559 26.3125 35.5396 25.3868C35.3724 24.3793 35.318 23.3051 35.318 22.0114V17.0307C35.318 13.8563 33.9652 11.0643 29.3928 11.0643L29.3928 11.0643ZM51.9984 11.0643C49.6336 11.0643 48.5709 12.2649 47.9266 13.2835H47.8706V11.3804H44.2642V25.387H48.0633V17.1727C48.0633 16.7876 48.1072 16.3804 48.2414 16.0262C48.5561 15.1992 49.3242 14.2317 50.5504 14.2317C52.0833 14.2317 52.8006 15.5302 52.8006 17.404V25.3868H56.5956V17.0732C56.5956 16.7056 56.6459 16.2628 56.7539 15.9378C57.0659 14.9971 57.8939 14.2316 59.0337 14.2316C60.5878 14.2316 61.3336 15.5074 61.3336 17.7123V25.3869H65.1313V17.1375C65.1313 12.7869 62.9263 11.0643 60.4373 11.0643C59.3349 11.0643 58.4649 11.3413 57.6782 11.8251C57.017 12.2316 56.4251 12.8091 55.9077 13.5696H55.8517C55.2497 12.0601 53.8374 11.0643 51.9977 11.0643L51.9984 11.0643ZM72.8604 11.0643C70.5124 11.0643 68.6485 11.7249 67.6314 12.3133L68.3761 14.8646C69.3052 14.2772 70.787 13.7909 72.1884 13.7909C74.5083 13.7849 74.8887 15.106 74.8887 15.9532V16.1536C69.8309 16.146 66.6354 17.8997 66.6354 21.4743C66.6354 23.6568 68.2628 25.7021 71.0926 25.7021C72.8322 25.7021 74.2888 25.0065 75.1599 23.8918H75.2458C75.2458 23.8918 75.8236 26.3125 79.0077 25.3868C78.8402 24.3793 78.7865 23.3051 78.7865 22.0114V17.0307C78.7865 13.8563 77.4333 11.0643 72.8604 11.0643L72.8604 11.0643ZM88.6371 11.0643C87.1824 11.0643 85.5272 12.0051 84.8325 14.0219H84.7264V11.3803H81.3064V25.3868H85.2051V18.2146C85.2051 17.8276 85.2285 17.4903 85.2896 17.1809C85.578 15.6785 86.725 14.7181 88.3712 14.7181C88.8231 14.7181 89.1466 14.7671 89.4965 14.8178V11.1509C89.2031 11.0915 89.0024 11.0641 88.6373 11.0641L88.6371 11.0643ZM31.5435 18.6356V20.383C31.5435 20.6414 31.521 20.9081 31.4495 21.1413C31.1571 22.1117 30.1536 22.9318 28.8992 22.9318C27.8534 22.9318 27.0226 22.3372 27.0226 21.0792C27.0226 19.155 29.1368 18.6231 31.5436 18.6356H31.5435ZM75.0111 18.6356V20.383C75.0111 20.6414 74.9882 20.9081 74.9172 21.1413C74.6247 22.1117 73.6216 22.9318 72.3672 22.9318C71.3212 22.9318 70.4903 22.3372 70.4903 21.0792C70.4903 19.155 72.6044 18.6231 75.0112 18.6356H75.0111Z" fill="currentColor"/>
<path d="M118.51 0C117.29 0 116.321 0.682568 116.321 1.51352L117.062 9.91884C117.143 10.4252 117.763 10.8159 118.511 10.8159C119.261 10.8149 119.878 10.4246 119.962 9.91884L120.706 1.51352C120.706 0.682639 119.734 7.13722e-05 118.512 7.13722e-05L118.51 0ZM106.436 6.74235C105.803 6.75741 105.083 7.23784 104.626 8.03283C104.014 9.09144 104.122 10.2745 104.838 10.6895L112.473 14.2518C112.95 14.4296 113.598 14.0902 113.973 13.4423C113.973 13.4422 113.973 13.442 113.973 13.4419C114.35 12.7908 114.321 12.0587 113.924 11.7339L107.028 6.88813C106.849 6.78421 106.648 6.73744 106.437 6.74246L106.436 6.74235ZM130.585 6.74235C130.373 6.73733 130.172 6.7841 129.994 6.88802L123.097 11.7338C122.702 12.0586 122.673 12.7907 123.048 13.4418L123.048 13.4422C123.425 14.0901 124.071 14.4295 124.548 14.2517L132.186 10.6896C132.905 10.2745 133.008 9.09157 132.4 8.03291C131.941 7.23789 131.22 6.75749 130.587 6.74243L130.585 6.74235ZM112.759 17.832C112.66 17.8306 112.564 17.8459 112.474 17.8797L104.839 21.4378C104.123 21.8547 104.015 23.0381 104.627 24.0979C105.237 25.1544 106.313 25.6567 107.029 25.2423L113.925 20.4003C114.322 20.0716 114.351 19.3396 113.974 18.6891L113.978 18.6906C113.673 18.1607 113.187 17.8377 112.759 17.8319L112.759 17.832ZM124.265 17.832C123.838 17.8378 123.353 18.1608 123.047 18.6907L123.05 18.6893C122.675 19.3397 122.704 20.0717 123.098 20.4004L129.995 25.2424C130.71 25.6568 131.787 25.1545 132.4 24.098C133.008 23.0382 132.905 21.8547 132.186 21.4379L124.549 17.8798C124.46 17.846 124.364 17.8307 124.265 17.8321L124.265 17.832ZM118.509 21.3155C117.762 21.3164 117.144 21.7053 117.063 22.2104L116.322 30.6154C116.322 31.4477 117.291 32.1289 118.511 32.1289C119.734 32.1289 120.705 31.4477 120.705 30.6154L119.963 22.2104C119.879 21.7053 119.262 21.3164 118.512 21.3155H118.509H118.509Z" fill="#B3B7BC"/>
</symbol>

</svg>